<?xml version="1.0"?><svg id="Layer_1" style="enable-background:new 0 0 48 48;" version="1.1" viewBox="0 0 48 48" xml:space="preserve" xmlns="http://www.w3.org/2000/svg" xmlns:xlink="http://www.w3.org/1999/xlink"><style type="text/css">
	.st0{fill:#FF7170;}
	.st1{fill:#FFFFFF;}
	.st2{fill:#FFBEA0;}
	.st3{fill:#AD9DC4;}
	.st4{fill:#64D3FF;}
	.st5{fill:#FFBF5B;}
	.st6{fill:#8CCDA5;}
	.st7{fill:#D2E18C;}
	.st8{fill:#E2E2E2;}
	.st9{fill:#2A3883;}
	.st10{fill:none;stroke:#000000;stroke-width:1.5;stroke-miterlimit:10;}
</style><g><g><g><path class="st5" d="M42.3,7.2H5.7c-1.6,0-2.9-1.3-2.9-2.8l0,0c0-1.6,1.3-2.8,2.9-2.8h36.6c1.6,0,2.8,1.3,2.8,2.8l0,0     C45.1,5.9,43.9,7.2,42.3,7.2z"/></g><g><path class="st5" d="M42.3,46.5H5.7c-1.6,0-2.9-1.3-2.9-2.9l0,0c0-1.6,1.3-2.8,2.9-2.8h36.6c1.6,0,2.8,1.3,2.8,2.8l0,0     C45.1,45.2,43.9,46.5,42.3,46.5z"/></g><g><path class="st1" d="M27.9,22.7l6.5-6.8c0.8-0.9,1.3-2,1.3-3.2V7.2H24H12.4v5.4c0,1.2,0.5,2.3,1.3,3.2l6.5,6.8     c0.7,0.7,0.7,1.9,0,2.6l-6.5,6.8c-0.8,0.9-1.3,2-1.3,3.2v5.4H24h11.6v-5.4c0-1.2-0.5-2.3-1.3-3.2l-6.5-6.8     C27.2,24.6,27.2,23.4,27.9,22.7z"/></g><g><path class="st2" d="M24,21.4c0.3-0.5,0.6-1,1-1.5l4.1-4.3H18.9L23,20C23.4,20.4,23.7,20.9,24,21.4z"/></g><g><path class="st2" d="M25,28c-0.4-0.4-0.8-0.9-1-1.5c-0.3,0.5-0.6,1-1,1.5l-6.5,6.8c-0.1,0.1-0.2,0.3-0.2,0.5v1.5h15.4v-1.5     c0-0.2-0.1-0.4-0.2-0.5L25,28z"/></g></g><path d="M42.3,7.9c2,0,3.6-1.6,3.6-3.6s-1.6-3.6-3.6-3.6H5.7c-2,0-3.6,1.6-3.6,3.6s1.6,3.6,3.6,3.6h0.7v32.1H5.7   c-2,0-3.6,1.6-3.6,3.6s1.6,3.6,3.6,3.6h36.6c2,0,3.6-1.6,3.6-3.6s-1.6-3.6-3.6-3.6h-0.7V7.9H42.3z M3.6,4.3c0-1.2,0.9-2.1,2.1-2.1   h36.6c1.2,0,2.1,0.9,2.1,2.1c0,1.2-0.9,2.1-2.1,2.1h-5.9H11.6H5.7C4.5,6.4,3.6,5.5,3.6,4.3z M27.3,25.8l6.5,6.9   c0.7,0.7,1.1,1.7,1.1,2.7v4.7H13.1v-4.7c0-1,0.4-2,1.1-2.7l6.5-6.8c1-1,1-2.6,0-3.6l-6.5-6.9c-0.7-0.7-1.1-1.7-1.1-2.7V7.9h21.8   v4.7c0,1-0.4,2-1.1,2.7l-6.5,6.8C26.4,23.2,26.4,24.8,27.3,25.8z M7.9,7.9h3.7v4.7c0,1.4,0.5,2.7,1.5,3.7l6.5,6.8   c0.4,0.4,0.4,1.1,0,1.6l-6.5,6.8c-1,1-1.5,2.3-1.5,3.7v4.7H7.9V7.9z M44.4,43.7c0,1.2-0.9,2.1-2.1,2.1H5.7c-1.2,0-2.1-0.9-2.1-2.1   c0-1.2,0.9-2.1,2.1-2.1h5.9h24.8h5.9C43.5,41.6,44.4,42.5,44.4,43.7z M40.1,40.1h-3.7v-4.7c0-1.4-0.5-2.7-1.5-3.7l-6.5-6.8   c-0.4-0.4-0.4-1.1,0-1.6l6.5-6.8c1-1,1.5-2.3,1.5-3.7V7.9h3.7V40.1z"/><path d="M17.2,14.9l5.3,5.6c0.4,0.4,0.7,0.8,0.9,1.3l0.7,1.4l0.7-1.4c0.2-0.5,0.5-0.9,0.9-1.3l5.3-5.6H17.2z M24.5,19.5   c-0.2,0.2-0.3,0.4-0.5,0.6c-0.1-0.2-0.3-0.4-0.5-0.5l-2.9-3h6.7L24.5,19.5z"/><path d="M25.6,27.5c-0.4-0.4-0.7-0.8-0.9-1.3L24,24.8l-0.7,1.4c-0.2,0.5-0.5,0.9-0.9,1.3L16,34.3c-0.3,0.3-0.4,0.6-0.4,1v2.2h16.9   v-2.2c0-0.4-0.1-0.7-0.4-1L25.6,27.5L25.6,27.5z M30.9,36.1H17l0-0.7l6.5-6.8c0.2-0.2,0.3-0.4,0.5-0.6c0.1,0.2,0.3,0.4,0.5,0.5   l6.5,6.8V36.1z"/></g></svg>